<?xml version="1.0" encoding="utf-8"?>
<!-- Generator: Adobe Illustrator 23.0.1, SVG Export Plug-In . SVG Version: 6.00 Build 0)  -->
<svg version="1.1" id="LOGO_x5F_NS" xmlns="http://www.w3.org/2000/svg" xmlns:xlink="http://www.w3.org/1999/xlink" x="0px"
	 y="0px" viewBox="0 0 103 141" style="enable-background:new 0 0 103 141;" xml:space="preserve">
<style type="text/css">
	.st0{fill:url(#SVGID_1_);}
	.st1{fill:url(#SVGID_2_);}
	.st2{fill:url(#SVGID_3_);}
	.st3{fill:url(#SVGID_4_);}
	.st4{fill:url(#SVGID_5_);}
	.st5{fill:url(#SVGID_6_);}
	.st6{fill:url(#SVGID_7_);}
	.st7{fill:url(#SVGID_8_);}
	.st8{fill:url(#SVGID_9_);}
	.st9{fill:url(#SVGID_10_);}
	.st10{fill:url(#SVGID_11_);}
	.st11{fill:url(#SVGID_12_);}
	.st12{fill:#252681;}
	.st13{fill:#D27A3F;}
</style>
<g>
	<g id="ICON">
		<linearGradient id="SVGID_1_" gradientUnits="userSpaceOnUse" x1="49.6391" y1="21.7386" x2="-25.1042" y2="121.2046">
			<stop  offset="0" style="stop-color:#C95A35"/>
			<stop  offset="3.858566e-02" style="stop-color:#CA5F36"/>
			<stop  offset="0.6993" style="stop-color:#DD9C44"/>
			<stop  offset="1" style="stop-color:#E6B54A"/>
		</linearGradient>
		<path class="st0" d="M52.8,15.9h1.8v8h0c-1.3,0-2.4-0.7-3.1-1.7l-0.9-1.4c-0.6-1-1-1.7-1.2-2.2c0,1,0,2.2,0,3.7v1.7h-1.8v-8h0
			c1.3,0,2.4,0.7,3.1,1.7l0.9,1.4c0.6,0.9,1,1.7,1.2,2.2c0-1,0-2.3,0-3.7V15.9z"/>
		<linearGradient id="SVGID_2_" gradientUnits="userSpaceOnUse" x1="132.0296" y1="21.3325" x2="58.1116" y2="119.7003">
			<stop  offset="0" style="stop-color:#C95A35"/>
			<stop  offset="3.858566e-02" style="stop-color:#CA5F36"/>
			<stop  offset="0.6993" style="stop-color:#DD9C44"/>
			<stop  offset="1" style="stop-color:#E6B54A"/>
		</linearGradient>
		<path class="st1" d="M51.7,128.4l-0.7-0.1c-0.5-0.1-0.9-0.2-1.1-0.3c-0.2-0.1-0.3-0.3-0.3-0.6c0-0.5,0.4-0.8,1.3-0.8l2.2,0
			c0.8,0,1.5-0.6,1.5-1.4h-1h-2.1h-0.6v0c-1,0-1.8,0.2-2.4,0.6c-0.6,0.4-0.8,1-0.8,1.6c0,1.3,0.9,2.1,2.8,2.4l0.7,0.1
			c0.6,0.1,1,0.2,1.2,0.3c0.2,0.1,0.3,0.3,0.3,0.6c0,0.6-0.5,0.9-1.4,0.9c0,0-2,0-2,0c-0.8,0-1.5,0.6-1.5,1.4h3.5v0
			c1.1,0,1.9-0.2,2.6-0.6c0.6-0.4,0.9-1,0.9-1.8c0-0.6-0.2-1.2-0.7-1.5C53.4,128.8,52.7,128.5,51.7,128.4z"/>
		<g>
			<linearGradient id="SVGID_3_" gradientUnits="userSpaceOnUse" x1="69.892" y1="25.0982" x2="13.732" y2="100.6982">
				<stop  offset="0" style="stop-color:#C95A35"/>
				<stop  offset="3.858566e-02" style="stop-color:#CA5F36"/>
				<stop  offset="0.6993" style="stop-color:#DD9C44"/>
				<stop  offset="1" style="stop-color:#E6B54A"/>
			</linearGradient>
			<path class="st2" d="M40.8,95.9c-0.7-0.3-1.3-0.7-2-1.1h0l-0.3-0.2l-0.7-0.5c-1.3-0.9-2.4-1.8-3.5-2.9c-1-1-2-2.2-2.8-3.4h0
				L31,87.1c-0.1-0.1-0.1-0.2-0.2-0.3l0-0.1c-0.4-0.7-0.8-1.5-1.2-2.2c-0.4-0.9-0.8-1.9-1.1-2.8c-0.8-2.3-1.1-4.8-1.1-7.3
				c0-1.3,0.1-2.5,0.3-3.8l-2.8-2.4l-4.5,1.4l-0.2,0.1h0L4.4,74.4l15.9,4.8l0.8,0.2l0.2,0.8c0.1,0.4,0.2,0.9,0.3,1.3
				c0.9,3.9,2.6,7.5,5,10.7L27,93L26.5,99l5.9-0.5l0.6,0.5c1.9,1.4,4,2.6,6.1,3.5c0,0,1.1,0.4,1.7,0.6l-1.2-4.1l1.2-1.2l1.1-1
				l0.2-0.2l0,0C41.7,96.3,40.8,95.9,40.8,95.9z"/>
			<linearGradient id="SVGID_4_" gradientUnits="userSpaceOnUse" x1="63.3192" y1="20.2155" x2="7.1592" y2="95.8155">
				<stop  offset="0" style="stop-color:#C95A35"/>
				<stop  offset="3.858566e-02" style="stop-color:#CA5F36"/>
				<stop  offset="0.6993" style="stop-color:#DD9C44"/>
				<stop  offset="1" style="stop-color:#E6B54A"/>
			</linearGradient>
			<path class="st3" d="M29.7,64.2c0.3-0.7,0.7-1.3,1.1-2v0l0.2-0.3l0.5-0.7c0.9-1.3,1.8-2.4,2.9-3.5c1-1,2.2-2,3.4-2.8v0l0.7-0.4
				c0.1-0.1,0.2-0.1,0.3-0.2l0.1,0c0.7-0.4,1.5-0.8,2.2-1.2c0.9-0.4,1.9-0.8,2.8-1.1c2.3-0.8,4.8-1.1,7.3-1.1c1.3,0,2.5,0.1,3.8,0.3
				l2.4-2.8l-1.4-4.5l-0.1-0.2v0l-4.8-15.7l-4.8,15.9L46,44.5l-0.8,0.2c-0.4,0.1-0.9,0.2-1.3,0.3c-3.9,0.9-7.5,2.6-10.7,5l-0.6,0.4
				l-6-0.6l0.5,6l-0.5,0.6c-1.4,1.9-2.6,4-3.5,6.1c0,0-0.4,1.1-0.6,1.7l4.1-1.2l1.2,1.2l1,1.1l0.2,0.2l0,0
				C29.2,65.1,29.7,64.2,29.7,64.2z"/>
			<linearGradient id="SVGID_5_" gradientUnits="userSpaceOnUse" x1="92.8304" y1="42.1381" x2="36.6704" y2="117.7381">
				<stop  offset="0" style="stop-color:#C95A35"/>
				<stop  offset="3.858566e-02" style="stop-color:#CA5F36"/>
				<stop  offset="0.6993" style="stop-color:#DD9C44"/>
				<stop  offset="1" style="stop-color:#E6B54A"/>
			</linearGradient>
			<path class="st4" d="M61.3,53c0.7,0.3,1.3,0.7,2,1.1h0l0.3,0.2l0.7,0.5c1.3,0.9,2.4,1.8,3.5,2.9c1,1,2,2.2,2.8,3.4h0l0.4,0.7
				c0.1,0.1,0.1,0.2,0.2,0.3l0,0.1c0.4,0.7,0.8,1.5,1.2,2.2c0.4,0.9,0.8,1.9,1.1,2.8c0.8,2.3,1.1,4.8,1.1,7.3c0,1.3-0.1,2.5-0.3,3.8
				l2.8,2.4l4.5-1.4l0.2-0.1h0l15.7-4.8l-15.9-4.8L81,69.3l-0.2-0.8c-0.1-0.4-0.2-0.9-0.3-1.3c-0.9-3.9-2.6-7.5-5-10.7l-0.4-0.6
				l0.5-5.9l-5.9,0.5L69,50c-1.9-1.4-4-2.6-6.1-3.5c0,0-1.1-0.4-1.7-0.6l1.2,4.1l-1.2,1.2l-1.1,1L60,52.3l0,0
				C60.4,52.6,61.3,53,61.3,53z"/>
			<linearGradient id="SVGID_6_" gradientUnits="userSpaceOnUse" x1="99.4354" y1="47.0447" x2="43.2754" y2="122.6447">
				<stop  offset="0" style="stop-color:#C95A35"/>
				<stop  offset="3.858566e-02" style="stop-color:#CA5F36"/>
				<stop  offset="0.6993" style="stop-color:#DD9C44"/>
				<stop  offset="1" style="stop-color:#E6B54A"/>
			</linearGradient>
			<path class="st5" d="M78.7,86.9c0,0,0.2-0.5,0.3-0.7c0,0,0.5-1.1,0.7-1.7l-2.9,0.9l-1.4,0.4l-1.2-1.1h0l-1.2-1.2
				c-0.2,0.4-0.4,0.9-0.6,1.3c-0.4,0.7-0.8,1.5-1.2,2.1l0,0L71.3,87l-0.1,0.1c-0.9,1.5-2.1,2.9-3.4,4.2c-1.2,1.2-2.6,2.4-4.2,3.3
				c0,0-0.1,0.1-0.2,0.1l-0.1,0.1L63.1,95h0c-0.6,0.4-1.3,0.7-1.9,1c-0.9,0.4-1.8,0.8-2.8,1.1l-0.2,0.1h0c-2.3,0.7-4.6,1.1-7,1.1
				h-0.2h-1.4c0,0-1.5-0.2-2.2-0.3l-2.4,2.8l0.3,0.9l0.9,3l0.2,0.7l4.9,16l4.8-15.9l0.2-0.8l0.8-0.2c0.4-0.1,0.9-0.2,1.3-0.3
				c3.9-0.9,7.5-2.6,10.8-5l0.6-0.4l6,0.6l-0.5-6l0.5-0.6C76.8,90.7,77.9,88.9,78.7,86.9z"/>
		</g>
	</g>
</g>
</svg>
