<?xml version="1.0" encoding="utf-8"?>
<!-- Generator: Adobe Illustrator 23.0.1, SVG Export Plug-In . SVG Version: 6.00 Build 0)  -->
<svg version="1.1" id="Camada_1" xmlns="http://www.w3.org/2000/svg" xmlns:xlink="http://www.w3.org/1999/xlink" x="0px" y="0px"
	 viewBox="0 0 350 110" style="enable-background:new 0 0 350 110;" xml:space="preserve">
<style type="text/css">
	.st0{fill:#FFFFFF;}
</style>
<path class="st0" d="M45.2,0h1.7v7.5h0c-1.2,0-2.3-0.6-2.9-1.6l-0.8-1.4c-0.6-0.9-0.9-1.6-1.2-2c0,1,0,2.1,0,3.5v1.6h-1.7V0h0
	c1.2,0,2.3,0.6,2.9,1.6L44.1,3C44.6,3.8,45,4.5,45.2,5c0-1,0-2.1,0-3.5V0z"/>
<path class="st0" d="M44.2,105.6l-0.7-0.1c-0.5-0.1-0.8-0.2-1-0.3c-0.2-0.1-0.3-0.3-0.3-0.6c0-0.5,0.4-0.7,1.2-0.7h2
	c0.8,0,1.4-0.6,1.4-1.3H46h-2h-0.6c-1,0-1.7,0.2-2.2,0.6c-0.5,0.4-0.8,0.9-0.8,1.5c0,1.2,0.9,2,2.6,2.2l0.6,0.1
	c0.5,0.1,0.9,0.2,1.1,0.3c0.2,0.1,0.3,0.3,0.3,0.5c0,0.6-0.4,0.8-1.3,0.8c0,0-1.9,0-1.9,0c-0.8,0-1.4,0.6-1.4,1.3h3.3
	c1,0,1.8-0.2,2.4-0.6c0.6-0.4,0.9-0.9,0.9-1.7c0-0.6-0.2-1.1-0.6-1.4C45.8,106,45.1,105.7,44.2,105.6z"/>
<path class="st0" d="M34,75c-0.6-0.3-1.3-0.6-1.9-1h0l-0.3-0.2l-0.6-0.4c-1.2-0.8-2.3-1.7-3.3-2.7c-1-1-1.9-2.1-2.7-3.2h0l-0.4-0.6
	c-0.1-0.1-0.1-0.2-0.1-0.2l0-0.1c-0.4-0.7-0.8-1.4-1.1-2.1c-0.4-0.9-0.7-1.7-1-2.6c-0.7-2.2-1.1-4.5-1.1-6.8c0-1.2,0.1-2.4,0.3-3.6
	l-2.6-2.2l-4.2,1.3l-0.2,0.1L0,55l14.9,4.5l0.8,0.2l0.1,0.8c0.1,0.4,0.2,0.8,0.3,1.2c0.9,3.6,2.5,7,4.7,10.1l0.4,0.6L20.7,78
	l5.6-0.5l0.6,0.4c1.8,1.3,3.7,2.4,5.7,3.3c0,0,1,0.4,1.6,0.6L32.9,78l1.1-1.1l1-1l0.2-0.2l0,0C34.8,75.5,34,75,34,75z"/>
<path class="st0" d="M23.6,45.4c0.3-0.6,0.6-1.3,1-1.9v0l0.2-0.3l0.4-0.6c0.8-1.2,1.7-2.3,2.7-3.3c1-1,2.1-1.9,3.2-2.7v0l0.6-0.4
	c0.1-0.1,0.2-0.1,0.2-0.2l0.1,0c0.7-0.4,1.4-0.8,2.1-1.1c0.9-0.4,1.7-0.8,2.6-1c2.2-0.7,4.5-1.1,6.8-1.1c1.2,0,2.4,0.1,3.6,0.3
	l2.2-2.6l-1.3-4.2l-0.1-0.2l-4.4-14.7l-4.5,14.9l-0.2,0.8l-0.8,0.2c-0.4,0.1-0.8,0.2-1.2,0.3c-3.6,0.9-7,2.5-10,4.7l-0.6,0.4
	l-5.6-0.5l0.5,5.6l-0.4,0.6c-1.3,1.8-2.4,3.7-3.3,5.7c0,0-0.4,1.1-0.6,1.6l3.8-1.2l1.1,1.1l1,1l0.2,0.2l0,0
	C23.2,46.2,23.6,45.4,23.6,45.4z"/>
<path class="st0" d="M53.2,34.8c0.6,0.3,1.3,0.6,1.9,1h0l0.3,0.2l0.6,0.4c1.2,0.8,2.3,1.7,3.3,2.7c1,1,1.9,2.1,2.7,3.2h0l0.4,0.6
	c0.1,0.1,0.1,0.2,0.1,0.2l0,0.1c0.4,0.7,0.8,1.4,1.1,2.1c0.4,0.9,0.7,1.7,1,2.6c0.7,2.2,1.1,4.5,1.1,6.8c0,1.2-0.1,2.4-0.3,3.6
	l2.6,2.2l4.2-1.3l0.2-0.1l14.7-4.5l-14.9-4.5l-0.8-0.2l-0.1-0.8c-0.1-0.4-0.2-0.8-0.3-1.2c-0.9-3.6-2.5-7-4.7-10.1L66,37.5l0.5-5.6
	L61,32.4L60.4,32c-1.8-1.3-3.7-2.4-5.7-3.3c0,0-1-0.4-1.6-0.6l1.2,3.8L53.2,33l-1,1L52,34.2l0,0C52.4,34.4,53.2,34.8,53.2,34.8z"/>
<path class="st0" d="M69.5,66.7c0,0,0.2-0.5,0.3-0.6c0,0,0.4-1.1,0.6-1.6l-2.7,0.8l-1.3,0.4l-1.1-1.1l-1.2-1.1
	c-0.2,0.4-0.4,0.8-0.6,1.2c-0.3,0.7-0.7,1.4-1.1,2l-0.1,0.1l-0.1,0.1c-0.9,1.4-1.9,2.7-3.1,3.9c-1.2,1.2-2.5,2.2-3.9,3.1
	c0,0-0.1,0.1-0.2,0.1l-0.1,0l-0.3,0.2h0c-0.6,0.3-1.2,0.7-1.8,0.9c-0.8,0.4-1.7,0.8-2.6,1l-0.2,0.1h0c-2.1,0.7-4.3,1-6.6,1h-0.2
	h-1.3c0,0-1.4-0.2-2.1-0.3l-2.3,2.6l0.2,0.8l0.9,2.8l0.2,0.6l4.6,15l4.5-15l0.2-0.8l0.8-0.2c0.4-0.1,0.8-0.2,1.2-0.3
	c3.6-0.9,7-2.5,10.1-4.7l0.6-0.4l5.6,0.5l-0.5-5.6l0.4-0.6C67.7,70.3,68.7,68.5,69.5,66.7z"/>
<path class="st0" d="M224.8,62.7c0,2.4-0.7,4.3-2,5.8c-1.3,1.5-3.2,2.2-5.8,2.2c-2.6,0-4.5-0.7-5.8-2.2c-1.3-1.5-2-3.4-2-5.8V34.3
	H201v28.4c0,2.4-0.7,4.3-2,5.8c-1.3,1.5-3.2,2.2-5.8,2.2c-2.6,0-4.5-0.7-5.8-2.2c-1.3-1.5-2-3.4-2-5.8V34.3h-8.2V63
	c0,2.1,0.5,3.9,1.4,5.6c0.9,1.6,2.1,3,3.6,4.1c1.5,1.1,3.2,2,5.1,2.6c3.8,1.2,8.1,1.2,11.8,0c1.9-0.6,3.6-1.5,5.1-2.6
	c0.3-0.2,0.6-0.5,0.9-0.8c0.3,0.3,0.6,0.5,0.9,0.8c1.5,1.1,3.2,2,5.1,2.6c1.9,0.6,3.9,0.9,5.9,0.9c2,0,4-0.3,5.9-0.9
	c1.9-0.6,3.6-1.5,5.1-2.6c1.5-1.1,2.7-2.5,3.6-4.1c0.9-1.6,1.4-3.5,1.4-5.6V34.3h-8.2L224.8,62.7L224.8,62.7z"/>
<path class="st0" d="M302.3,62.7c0,2.4-0.7,4.3-2,5.8c-1.3,1.5-3.2,2.2-5.8,2.2c-2.6,0-4.5-0.7-5.8-2.2c-1.3-1.5-2-3.4-2-5.8V34.3
	h-8.2V63c0,2.1,0.5,3.9,1.4,5.6c0.9,1.6,2.1,3,3.6,4.1c1.5,1.1,3.2,2,5.1,2.6c1.9,0.6,3.9,0.9,5.9,0.9c2,0,4-0.3,5.9-0.9
	c1.9-0.6,3.6-1.5,5.1-2.6c1.5-1.1,2.7-2.5,3.6-4.1c0.9-1.6,1.4-3.5,1.4-5.6V34.3h-8.2L302.3,62.7L302.3,62.7z"/>
<path class="st0" d="M270.4,54.4c-0.8-1.7-1.7-3.1-2.9-4.1c-1.2-1-2.4-1.8-3.8-2.4c-1.3-0.5-2.4-0.9-3.4-1.2c-1.5-0.4-3-0.9-4.5-1.3
	c-1.5-0.4-2.9-0.8-4.1-1.2c-0.5-0.1-1.1-0.4-1.7-0.7c-0.5-0.3-1-0.7-1.4-1.2c-0.4-0.5-0.7-1.1-0.9-1.8c-0.2-0.7-0.2-1.5,0-2.6
	c0.1-0.9,0.4-1.6,0.9-2.2c0.5-0.6,1-1.1,1.7-1.5c0.7-0.4,1.4-0.7,2.1-0.8c0.8-0.2,1.5-0.3,2.2-0.3v0h8.3c2.9,0,5.3-2.4,5.3-5.3v-0.3
	h-13.6v0c-1.5,0-3,0.2-4.5,0.5c-1.6,0.3-3.1,0.9-4.5,1.8c-1.4,0.8-2.6,2-3.5,3.4c-1,1.4-1.5,3.3-1.6,5.5c-0.1,2.1,0.1,5,1,6.7
	c0.8,1.5,1.9,2.8,3.1,3.8c1.2,1,2.5,1.7,3.9,2.2c1.3,0.5,2.4,0.8,3.3,1.1c0.9,0.2,1.7,0.5,2.3,0.6l0.1,0c0.6,0.2,1.1,0.3,1.6,0.5
	l1.4,0.4c0.4,0.1,0.9,0.3,1.5,0.4c0.5,0.1,1.1,0.3,1.8,0.6c0.7,0.3,1.4,0.7,2,1.3c0.6,0.5,1.2,1.2,1.6,2.1c0.4,0.8,0.6,1.8,0.6,2.9
	c0,1.3-0.2,2.4-0.6,3.5c-0.4,1.1-1,2.1-1.7,3c-0.8,0.9-1.7,1.5-2.8,2.1c-1.1,0.5-2.4,0.8-3.9,0.8h-10c-2.9,0-5.3,2.4-5.3,5.3v0.3
	h16.9v0c1.1-0.1,2.3-0.2,3.6-0.6c1.6-0.4,3.2-1.2,4.7-2.3c1.5-1.1,2.8-2.6,3.9-4.5c1.1-1.9,1.8-4.4,1.9-7.4
	C271.4,59.1,271.2,56.2,270.4,54.4z"/>
<path class="st0" d="M348.1,40.4c-1.3-1.7-2.9-3.1-4.8-4c-1.8-0.9-3.8-1.5-5.9-1.7c-2-0.3-3.7-0.4-5.2-0.4h-14.7v41.8h8.2V39.6h4.7
	c1.1,0,2.3,0.1,3.7,0.2c1.3,0.1,2.6,0.5,3.8,1c1.1,0.5,2,1.3,2.8,2.4c0.7,1,1,2.5,1,4.5v28.4h8.2V47.5
	C350.1,44.6,349.4,42.2,348.1,40.4z"/>
<path class="st0" d="M123.3,27.4V60c-1.9-3.8-3.7-7.2-5.3-10.1l-6.3-12c-1.1-2-2.4-4.3-3.5-6.3c-1.4-2.5-4.1-4.1-7-4.1h-2.5v10.4
	v17.6v20.8h7.9v-32l9.2,17.2c0.2,0.5,3.5,6.5,5.9,10.7c1.4,2.5,4.1,4.1,7,4.1h2.5v-28V27.4H123.3z"/>
<path class="st0" d="M164.8,70.5h-9.6c-0.3,0-0.7-0.1-1-0.1c-1.3-0.1-2.5-0.5-3.7-1c-1.1-0.5-2-1.3-2.8-2.3c-0.7-1-1.1-2.4-1.2-4.2
	v-1.8h4.5h0h1.1v0c0.9,0,1.9-0.1,2.8-0.2c1.8-0.2,3.5-0.6,5.2-1.1c1.7-0.5,3.3-1.3,4.7-2.3c1.4-1,2.6-2.2,3.5-3.6
	c1-1.5,1.5-3.2,1.6-5.2c0.1-2.2-0.3-4.2-1.2-6c-0.8-1.8-2-3.3-3.5-4.5c-1.5-1.2-3.2-2.1-5.1-2.8c-1.9-0.6-3.9-0.9-5.9-0.9
	c-2.5,0-4.8,0.4-6.8,1.3c-2,0.9-3.7,2.1-5.1,3.6c-1.4,1.5-2.5,3.3-3.2,5.4c-0.7,2.1-1.1,4.3-1.1,6.7v11.3c0,3,0.6,5.5,1.9,7.3
	c1.3,1.8,2.9,3.1,4.8,4.1c1.8,0.9,3.8,1.5,5.8,1.8c1.6,0.2,3.1,0.3,4.4,0.4v0h0.8h0.5h13.6v-0.3C170.1,72.9,167.7,70.5,164.8,70.5z
	 M146.5,48.7c0-2.7,0.7-4.8,2.2-6.5c1.4-1.6,3.3-2.4,5.8-2.4c1.1,0,2.1,0.2,3.1,0.5c1,0.4,1.8,0.9,2.5,1.6c0.7,0.7,1.3,1.6,1.7,2.6
	c0.4,1,0.5,2.2,0.4,3.6c-0.1,1.4-0.5,2.6-1.3,3.5c-0.8,1-1.9,1.7-3.3,2.3c-1.5,0.6-3.2,1-5.2,1.1c-0.1,0-0.2,0-0.3,0v0h-5.6V48.7z"
	/>
<path class="st0" d="M144.3,84.7c-0.3-0.3-0.6-0.5-1.1-0.6c-0.5-0.2-1-0.2-1.8-0.2c-0.7,0-1.3,0.1-1.8,0.2c-0.5,0.2-0.8,0.4-1.1,0.6
	c-0.3,0.3-0.4,0.6-0.5,0.9c-0.1,0.3-0.1,0.6-0.1,1V94h1.8v-4h3.4v4h1.8v-7.4c0-0.3,0-0.7-0.1-1C144.8,85.3,144.6,85,144.3,84.7z
	 M143.1,86.1c0,0.2,0,0.3,0,0.5v2.1h-3.4v-2.1c0-0.1,0-0.3,0-0.5c0-0.2,0.1-0.3,0.2-0.4c0.1-0.1,0.3-0.3,0.5-0.4
	c0.2-0.1,0.6-0.2,1-0.2c0.4,0,0.8,0.1,1,0.2c0.2,0.1,0.4,0.2,0.5,0.4C143,85.8,143.1,86,143.1,86.1z"/>
<path class="st0" d="M160,83.9c-0.2,0-0.5-0.1-0.8-0.1h-1.8c-0.2,0-0.4,0-0.6,0c-0.2,0-0.5,0.1-0.7,0.1c-0.3,0.1-0.5,0.2-0.7,0.3
	c-0.3,0.1-0.5,0.3-0.7,0.5c-0.2,0.2-0.4,0.4-0.5,0.7c-0.1,0.3-0.2,0.6-0.2,1v5c0,0.4,0,0.7,0.2,1c0.1,0.3,0.3,0.5,0.5,0.7
	c0.2,0.2,0.4,0.3,0.7,0.5c0.2,0.1,0.5,0.2,0.7,0.3c0.2,0.1,0.5,0.1,0.7,0.1c0.2,0,0.4,0,0.6,0h1.8c0.3,0,0.6,0,0.8-0.1
	c0.2,0,0.4-0.1,0.5-0.2l0.2-0.1v-1h-3c-0.2,0-0.4,0-0.7,0c-0.2,0-0.4-0.1-0.6-0.2c-0.2-0.1-0.3-0.2-0.4-0.4
	c-0.1-0.2-0.2-0.4-0.1-0.7v-1.9h2c0.3,0,0.6,0,0.8-0.1c0.2,0,0.4-0.1,0.5-0.2l0.2-0.1v-1h-3.5v-1.8c0-0.3,0-0.5,0.1-0.7
	c0.1-0.2,0.3-0.3,0.4-0.4c0.2-0.1,0.4-0.2,0.6-0.2c0.3,0,0.5,0,0.7,0h3v-1l-0.2-0.1C160.4,84,160.2,83.9,160,83.9z"/>
<path class="st0" d="M168.6,86.8c-0.3-0.2-0.7-0.3-1.1-0.3c-0.4,0-0.7-0.1-1-0.1h-2.8V94h1.8v-6.3h0.7c0.2,0,0.4,0,0.7,0
	c0.2,0,0.4,0.1,0.6,0.2c0.2,0.1,0.3,0.2,0.4,0.4c0.1,0.2,0.2,0.4,0.2,0.7v5h1.8v-5.1c0-0.6-0.1-1-0.4-1.4
	C169.3,87.2,169,87,168.6,86.8z"/>
<path class="st0" d="M178.2,86.9c-0.3-0.2-0.6-0.4-1-0.5c-0.8-0.3-1.7-0.2-2.4,0.1c-0.4,0.2-0.7,0.4-1,0.7c-0.3,0.3-0.5,0.6-0.6,1
	c-0.1,0.4-0.2,0.8-0.2,1.2v2c0,0.6,0.1,1.1,0.4,1.4c0.3,0.3,0.6,0.6,0.9,0.8c0.3,0.2,0.7,0.3,1.1,0.3c0.4,0,0.7,0.1,1,0.1h0.5
	c0.3,0,0.6,0,0.8-0.1c0.2,0,0.4-0.1,0.5-0.2l0.2-0.1v-1h-1.7c-0.2,0-0.4,0-0.7,0c-0.2,0-0.4-0.1-0.6-0.2c-0.2-0.1-0.3-0.2-0.4-0.4
	c-0.1-0.1-0.2-0.4-0.2-0.6v-0.2c0.1,0,0.3,0,0.4,0c0.3,0,0.6,0,1,0c0.3,0,0.7-0.1,1-0.2c0.3-0.1,0.6-0.2,0.9-0.4
	c0.3-0.2,0.5-0.4,0.7-0.7c0.2-0.3,0.3-0.6,0.3-1c0-0.4-0.1-0.8-0.2-1.2C178.7,87.5,178.5,87.2,178.2,86.9z M174.8,89
	c0-0.4,0.1-0.8,0.4-1c0.2-0.3,0.5-0.4,0.9-0.4c0.2,0,0.3,0,0.5,0.1c0.1,0.1,0.3,0.1,0.4,0.2c0.1,0.1,0.2,0.2,0.3,0.4
	s0.1,0.4,0.1,0.6c0,0.2-0.1,0.4-0.2,0.5c-0.1,0.2-0.3,0.3-0.5,0.4c-0.3,0.1-0.6,0.2-0.9,0.2c-0.3,0-0.6,0-0.9,0L174.8,89L174.8,89z"
	/>
<path class="st0" d="M183.7,86.6c-0.4,0.2-0.8,0.4-1,0.6c-0.3,0.3-0.4,0.6-0.5,0.9c-0.1,0.3-0.1,0.6-0.1,0.9v5h1.8v-5
	c0-0.3,0-0.5,0.1-0.6c0.1-0.2,0.2-0.3,0.3-0.4c0.1-0.1,0.3-0.2,0.5-0.2c0.2,0,0.4-0.1,0.6-0.1c0.3,0,0.6-0.1,0.8-0.1
	c0.2,0,0.4-0.1,0.6-0.2l0.2-0.1v-1h-1.5C184.7,86.4,184.1,86.5,183.7,86.6z"/>
<path class="st0" d="M192.3,86.4c-0.2,0-0.5,0.1-0.7,0.1c-0.2,0.1-0.5,0.1-0.7,0.2c-0.3,0.1-0.5,0.3-0.7,0.5
	c-0.2,0.2-0.4,0.4-0.5,0.7c-0.1,0.3-0.2,0.6-0.2,1v2.5c0,0.4,0,0.7,0.2,1c0.1,0.3,0.3,0.5,0.5,0.7c0.2,0.2,0.4,0.3,0.7,0.5
	c0.2,0.1,0.5,0.2,0.7,0.3c0.2,0.1,0.5,0.1,0.7,0.1c0.2,0,0.4,0,0.6,0h1v0.4c0,0.3,0,0.6-0.2,0.7c-0.1,0.2-0.3,0.3-0.4,0.4
	c-0.2,0.1-0.4,0.2-0.6,0.2c-0.3,0-0.5,0-0.7,0h-1.2v1l0.2,0.1c0.1,0.1,0.3,0.1,0.5,0.2c0.2,0,0.5,0.1,0.8,0.1l0.3,0v0
	c0.2,0,0.4,0,0.6-0.1c0.4,0,0.8-0.2,1.1-0.3c0.4-0.2,0.7-0.4,0.9-0.8c0.3-0.4,0.4-0.8,0.4-1.4v-8h-2.8
	C192.7,86.4,192.5,86.4,192.3,86.4z M191.5,92.1c-0.1-0.2-0.2-0.4-0.1-0.7V89c0-0.3,0-0.5,0.1-0.7c0.1-0.2,0.3-0.3,0.4-0.4
	c0.2-0.1,0.4-0.2,0.6-0.2c0.3,0,0.5,0,0.7,0h0.7v5h-0.7c-0.2,0-0.4,0-0.7,0c-0.2,0-0.4-0.1-0.6-0.2
	C191.8,92.4,191.6,92.3,191.5,92.1z"/>
<path class="st0" d="M200.9,86.4h-1.8V94h1.8V86.4z"/>
<path class="st0" d="M199.3,84.1c-0.2,0.2-0.3,0.4-0.3,0.6c0,0.3,0.1,0.5,0.3,0.6c0.2,0.2,0.4,0.3,0.6,0.3s0.5-0.1,0.6-0.3
	c0.2-0.2,0.3-0.4,0.3-0.6c0-0.2-0.1-0.5-0.3-0.6C200.3,83.7,199.7,83.7,199.3,84.1z"/>
<path class="st0" d="M209.1,86.8c-0.3-0.2-0.7-0.3-1.1-0.3c-0.8-0.1-1.4-0.1-1.8,0c-0.2,0-0.4,0.1-0.5,0.2l-0.2,0.1v0.9h1.2
	c0.2,0,0.4,0,0.7,0c0.2,0,0.4,0.1,0.6,0.2c0.2,0.1,0.3,0.2,0.4,0.4c0.1,0.1,0.1,0.2,0.1,0.4c-0.4,0-0.8,0-1.2,0
	c-0.6,0-1.1,0.2-1.5,0.4c-0.5,0.2-0.9,0.5-1.2,0.8c-0.3,0.4-0.5,0.9-0.5,1.5c0,0.6,0.1,1.1,0.4,1.4c0.3,0.3,0.6,0.6,0.9,0.8
	c0.3,0.2,0.7,0.3,1.1,0.3c0.4,0,0.7,0.1,1,0.1h2.8v-5c0-0.6-0.1-1-0.4-1.4C209.7,87.3,209.4,87,209.1,86.8z M206.1,92.1
	c-0.1-0.2-0.2-0.4-0.2-0.7c0-0.3,0.1-0.6,0.2-0.7c0.1-0.2,0.3-0.3,0.6-0.4c0.3-0.1,0.6-0.2,0.9-0.2c0.2,0,0.4,0,0.6,0
	c0.1,0,0.1,0,0.2,0v2.7h-0.7c-0.2,0-0.4,0-0.7,0c-0.2,0-0.4-0.1-0.6-0.2C206.4,92.4,206.2,92.3,206.1,92.1z"/>
<path class="st0" d="M223.9,86.4h-1c-0.2,0-0.4,0-0.6,0c-0.2,0-0.5,0.1-0.7,0.1c-0.3,0.1-0.5,0.1-0.7,0.3c-0.3,0.1-0.5,0.3-0.7,0.5
	c-0.2,0.2-0.4,0.4-0.5,0.7c-0.1,0.3-0.2,0.6-0.2,1v2.5c0,0.6,0.1,1.1,0.4,1.4c0.3,0.3,0.6,0.6,0.9,0.8c0.3,0.2,0.7,0.3,1.1,0.3
	c0.4,0,0.7,0.1,1,0.1h2.9V83.8h-1.8V86.4z M221.5,92.1c-0.1-0.2-0.2-0.4-0.2-0.7V89c0-0.3,0-0.6,0.2-0.7c0.1-0.2,0.3-0.3,0.4-0.4
	c0.2-0.1,0.4-0.2,0.6-0.2c0.3,0,0.5,0,0.7,0h0.7v5h-0.7c-0.2,0-0.4,0-0.7,0c-0.2,0-0.4-0.1-0.6-0.2
	C221.7,92.4,221.6,92.3,221.5,92.1z"/>
<path class="st0" d="M233.7,86.8c-0.3-0.2-0.7-0.3-1.1-0.3c-0.8-0.1-1.4-0.1-1.8,0c-0.2,0-0.4,0.1-0.5,0.2l-0.2,0.1v0.9h1.2
	c0.2,0,0.4,0,0.7,0c0.2,0,0.4,0.1,0.6,0.2c0.2,0.1,0.3,0.2,0.4,0.4c0.1,0.1,0.1,0.2,0.1,0.4c-0.4,0-0.8,0-1.2,0
	c-0.6,0-1.1,0.2-1.5,0.4c-0.5,0.2-0.8,0.5-1.2,0.8c-0.3,0.4-0.5,0.9-0.5,1.5c0,0.6,0.1,1.1,0.4,1.4c0.3,0.3,0.6,0.6,0.9,0.8
	c0.3,0.2,0.7,0.3,1.1,0.3c0.4,0,0.7,0.1,1,0.1h2.9v-5c0-0.6-0.1-1-0.4-1.4C234.4,87.3,234.1,87,233.7,86.8z M230.8,92.1
	c-0.1-0.2-0.2-0.4-0.2-0.7c0-0.3,0.1-0.6,0.2-0.7c0.1-0.2,0.3-0.3,0.6-0.4c0.3-0.1,0.6-0.2,0.9-0.2c0.2,0,0.4,0,0.6,0
	c0.1,0,0.1,0,0.2,0v2.7h-0.7c-0.2,0-0.4,0-0.7,0c-0.2,0-0.4-0.1-0.6-0.2C231,92.4,230.9,92.3,230.8,92.1z"/>
<path class="st0" d="M249.2,90.2l-2.6-4.9c-0.5-0.9-1.4-1.4-2.3-1.4h0V94h1.8v-6.2l2.6,4.8c0.5,0.9,1.4,1.4,2.3,1.4h0.1V83.8h-1.8
	V90.2z"/>
<path class="st0" d="M259.2,86.9c-0.3-0.2-0.6-0.4-1-0.5c-0.7-0.2-1.5-0.2-2.2,0c-0.4,0.1-0.7,0.3-1,0.5c-0.3,0.2-0.5,0.5-0.7,0.8
	c-0.2,0.3-0.3,0.7-0.3,1.1v2.8c0,0.4,0.1,0.8,0.3,1.1c0.2,0.3,0.4,0.6,0.7,0.8c0.3,0.2,0.6,0.4,1,0.5c0.4,0.1,0.7,0.2,1.1,0.2
	s0.8-0.1,1.1-0.2c0.4-0.1,0.7-0.3,1-0.5c0.3-0.2,0.5-0.5,0.7-0.8c0.2-0.3,0.3-0.7,0.3-1.1v-2.8c0-0.4-0.1-0.8-0.3-1.1
	C259.7,87.4,259.5,87.1,259.2,86.9z M255.8,88.8c0-0.4,0.1-0.7,0.3-0.9c0.2-0.2,0.5-0.3,0.9-0.3c0.4,0,0.7,0.1,0.9,0.3
	c0.2,0.2,0.3,0.6,0.3,0.9v2.7c0,0.4-0.1,0.7-0.3,0.9c-0.2,0.2-0.5,0.3-0.9,0.3c-0.4,0-0.7-0.1-0.9-0.3c-0.2-0.2-0.3-0.6-0.3-0.9
	V88.8z"/>
<path class="st0" d="M266.1,91.1l-1.3-4.7H263l2.3,7.6h1.7l2.4-7.6h-1.8L266.1,91.1z"/>
<path class="st0" d="M277,86.8c-0.3-0.2-0.7-0.3-1.1-0.3c-0.8-0.1-1.4-0.1-1.8,0c-0.2,0-0.4,0.1-0.5,0.2l-0.2,0.1v0.9h1.2
	c0.2,0,0.4,0,0.7,0c0.2,0,0.4,0.1,0.6,0.2c0.2,0.1,0.3,0.2,0.4,0.4c0.1,0.1,0.1,0.2,0.1,0.4c-0.4,0-0.8,0-1.2,0
	c-0.6,0-1.1,0.2-1.5,0.4c-0.5,0.2-0.9,0.5-1.2,0.8c-0.3,0.4-0.5,0.9-0.5,1.5c0,0.6,0.1,1.1,0.4,1.4c0.3,0.3,0.6,0.6,0.9,0.8
	c0.3,0.2,0.7,0.3,1.1,0.3c0.4,0,0.7,0.1,1,0.1h2.9v-5c0-0.6-0.1-1-0.4-1.4C277.7,87.3,277.4,87,277,86.8z M274.1,92.1
	c-0.1-0.2-0.2-0.4-0.2-0.7c0-0.3,0.1-0.6,0.2-0.7c0.1-0.2,0.3-0.3,0.6-0.4c0.3-0.1,0.6-0.2,0.9-0.2c0.2,0,0.4,0,0.6,0
	c0.1,0,0.1,0,0.2,0v2.7h-0.7c-0.2,0-0.4,0-0.7,0c-0.2,0-0.4-0.1-0.6-0.2C274.4,92.4,274.2,92.3,274.1,92.1z"/>
<path class="st0" d="M293.4,83.9c-0.2,0-0.5-0.1-0.8-0.1h-1.8c-0.2,0-0.4,0-0.6,0c-0.2,0-0.5,0.1-0.7,0.1c-0.3,0.1-0.5,0.2-0.7,0.3
	c-0.3,0.1-0.5,0.3-0.7,0.5c-0.2,0.2-0.4,0.4-0.5,0.7c-0.1,0.3-0.2,0.6-0.2,1v5c0,0.4,0,0.7,0.2,1c0.1,0.3,0.3,0.5,0.5,0.7
	c0.2,0.2,0.4,0.3,0.7,0.5c0.2,0.1,0.5,0.2,0.7,0.3c0.2,0.1,0.5,0.1,0.7,0.1c0.2,0,0.4,0,0.6,0h1.8c0.3,0,0.6,0,0.8-0.1
	c0.2,0,0.4-0.1,0.5-0.2l0.2-0.1v-1h-3c-0.2,0-0.4,0-0.7,0c-0.2,0-0.4-0.1-0.6-0.2c-0.2-0.1-0.3-0.2-0.4-0.4
	c-0.1-0.2-0.2-0.4-0.1-0.7v-1.9h2c0.3,0,0.6,0,0.8-0.1c0.2,0,0.4-0.1,0.5-0.2l0.2-0.1v-1h-3.5v-1.8c0-0.3,0-0.5,0.1-0.7
	c0.1-0.2,0.3-0.3,0.4-0.4c0.2-0.1,0.4-0.2,0.6-0.2c0.3,0,0.5,0,0.7,0h3v-1l-0.2-0.1C293.8,84,293.6,83.9,293.4,83.9z"/>
<path class="st0" d="M298.7,86.6c-0.4,0.2-0.8,0.4-1,0.6c-0.3,0.3-0.4,0.6-0.5,0.9c-0.1,0.3-0.1,0.6-0.1,0.9v5h1.8v-5
	c0-0.3,0-0.5,0.1-0.6c0.1-0.2,0.2-0.3,0.3-0.4c0.1-0.1,0.3-0.2,0.5-0.2c0.2,0,0.4-0.1,0.6-0.1c0.3,0,0.6-0.1,0.8-0.1
	c0.2,0,0.4-0.1,0.6-0.2l0.2-0.1v-1h-1.5C299.7,86.4,299.2,86.5,298.7,86.6z"/>
<path class="st0" d="M310.4,87.6c-0.3-0.3-0.6-0.6-0.9-0.8c-0.3-0.2-0.7-0.3-1.1-0.3c-0.8-0.1-1.4-0.1-1.8,0c-0.2,0-0.4,0.1-0.5,0.2
	l-0.2,0.1v0.9h1.2c0.2,0,0.4,0,0.7,0c0.2,0,0.4,0.1,0.6,0.2c0.2,0.1,0.3,0.2,0.4,0.4c0.1,0.1,0.1,0.2,0.1,0.4c-0.4,0-0.8,0-1.2,0
	c-0.6,0-1.1,0.2-1.5,0.4c-0.5,0.2-0.9,0.5-1.2,0.8c-0.3,0.4-0.5,0.9-0.5,1.5c0,0.6,0.1,1.1,0.4,1.4c0.3,0.3,0.6,0.6,0.9,0.8
	c0.3,0.2,0.7,0.3,1.1,0.3c0.4,0,0.7,0.1,1,0.1h2.9v-5C310.8,88.4,310.7,88,310.4,87.6z M306.5,92.1c-0.1-0.2-0.2-0.4-0.2-0.7
	c0-0.3,0.1-0.6,0.2-0.7c0.1-0.2,0.3-0.3,0.6-0.4c0.3-0.1,0.6-0.2,0.9-0.2c0.2,0,0.4,0,0.6,0c0.1,0,0.1,0,0.2,0v2.7h-0.7
	c-0.2,0-0.4,0-0.7,0c-0.2,0-0.4-0.1-0.6-0.2C306.8,92.4,306.7,92.3,306.5,92.1z"/>
</svg>
