<?xml version="1.0" encoding="utf-8"?>
<!-- Generator: Adobe Illustrator 23.0.1, SVG Export Plug-In . SVG Version: 6.00 Build 0)  -->
<svg version="1.1" id="LOGO_x5F_NS" xmlns="http://www.w3.org/2000/svg" xmlns:xlink="http://www.w3.org/1999/xlink" x="0px"
	 y="0px" viewBox="0 0 388 141" style="enable-background:new 0 0 388 141;" xml:space="preserve">
<style type="text/css">
	.st0{fill:url(#SVGID_1_);}
	.st1{fill:url(#SVGID_2_);}
	.st2{fill:url(#SVGID_3_);}
	.st3{fill:url(#SVGID_4_);}
	.st4{fill:url(#SVGID_5_);}
	.st5{fill:url(#SVGID_6_);}
	.st6{fill:url(#SVGID_7_);}
	.st7{fill:url(#SVGID_8_);}
	.st8{fill:url(#SVGID_9_);}
	.st9{fill:url(#SVGID_10_);}
	.st10{fill:url(#SVGID_11_);}
	.st11{fill:url(#SVGID_12_);}
	.st12{fill:#252681;}
	.st13{fill:#D27A3F;}
</style>
<g>
	<g id="ICON_1_">
		<linearGradient id="SVGID_1_" gradientUnits="userSpaceOnUse" x1="49.6391" y1="21.7386" x2="-25.1042" y2="121.2046">
			<stop  offset="0" style="stop-color:#C95A35"/>
			<stop  offset="3.858566e-02" style="stop-color:#CA5F36"/>
			<stop  offset="0.6993" style="stop-color:#DD9C44"/>
			<stop  offset="1" style="stop-color:#E6B54A"/>
		</linearGradient>
		<path class="st0" d="M52.8,15.9h1.8v8h0c-1.3,0-2.4-0.7-3.1-1.7l-0.9-1.4c-0.6-1-1-1.7-1.2-2.2c0,1,0,2.2,0,3.7v1.7h-1.8v-8h0
			c1.3,0,2.4,0.7,3.1,1.7l0.9,1.4c0.6,0.9,1,1.7,1.2,2.2c0-1,0-2.3,0-3.7V15.9z"/>
		<linearGradient id="SVGID_2_" gradientUnits="userSpaceOnUse" x1="132.0296" y1="21.3325" x2="58.1116" y2="119.7003">
			<stop  offset="0" style="stop-color:#C95A35"/>
			<stop  offset="3.858566e-02" style="stop-color:#CA5F36"/>
			<stop  offset="0.6993" style="stop-color:#DD9C44"/>
			<stop  offset="1" style="stop-color:#E6B54A"/>
		</linearGradient>
		<path class="st1" d="M51.7,128.4l-0.7-0.1c-0.5-0.1-0.9-0.2-1.1-0.3c-0.2-0.1-0.3-0.3-0.3-0.6c0-0.5,0.4-0.8,1.3-0.8l2.2,0
			c0.8,0,1.5-0.6,1.5-1.4h-1h-2.1h-0.6v0c-1,0-1.8,0.2-2.4,0.6c-0.6,0.4-0.8,1-0.8,1.6c0,1.3,0.9,2.1,2.8,2.4l0.7,0.1
			c0.6,0.1,1,0.2,1.2,0.3c0.2,0.1,0.3,0.3,0.3,0.6c0,0.6-0.5,0.9-1.4,0.9c0,0-2,0-2,0c-0.8,0-1.5,0.6-1.5,1.4h3.5v0
			c1.1,0,1.9-0.2,2.6-0.6c0.6-0.4,0.9-1,0.9-1.8c0-0.6-0.2-1.2-0.7-1.5C53.4,128.8,52.7,128.5,51.7,128.4z"/>
		<g>
			<linearGradient id="SVGID_3_" gradientUnits="userSpaceOnUse" x1="69.892" y1="25.0982" x2="13.732" y2="100.6982">
				<stop  offset="0" style="stop-color:#C95A35"/>
				<stop  offset="3.858566e-02" style="stop-color:#CA5F36"/>
				<stop  offset="0.6993" style="stop-color:#DD9C44"/>
				<stop  offset="1" style="stop-color:#E6B54A"/>
			</linearGradient>
			<path class="st2" d="M40.8,95.9c-0.7-0.3-1.3-0.7-2-1.1h0l-0.3-0.2l-0.7-0.5c-1.3-0.9-2.4-1.8-3.5-2.9c-1-1-2-2.2-2.8-3.4h0
				L31,87.1c-0.1-0.1-0.1-0.2-0.2-0.3l0-0.1c-0.4-0.7-0.8-1.5-1.2-2.2c-0.4-0.9-0.8-1.9-1.1-2.8c-0.8-2.3-1.1-4.8-1.1-7.3
				c0-1.3,0.1-2.5,0.3-3.8l-2.8-2.4l-4.5,1.4l-0.2,0.1h0L4.4,74.4l15.9,4.8l0.8,0.2l0.2,0.8c0.1,0.4,0.2,0.9,0.3,1.3
				c0.9,3.9,2.6,7.5,5,10.7L27,93L26.5,99l5.9-0.5l0.6,0.5c1.9,1.4,4,2.6,6.1,3.5c0,0,1.1,0.4,1.7,0.6l-1.2-4.1l1.2-1.2l1.1-1
				l0.2-0.2l0,0C41.7,96.3,40.8,95.9,40.8,95.9z"/>
			<linearGradient id="SVGID_4_" gradientUnits="userSpaceOnUse" x1="63.3192" y1="20.2155" x2="7.1592" y2="95.8155">
				<stop  offset="0" style="stop-color:#C95A35"/>
				<stop  offset="3.858566e-02" style="stop-color:#CA5F36"/>
				<stop  offset="0.6993" style="stop-color:#DD9C44"/>
				<stop  offset="1" style="stop-color:#E6B54A"/>
			</linearGradient>
			<path class="st3" d="M29.7,64.2c0.3-0.7,0.7-1.3,1.1-2v0l0.2-0.3l0.5-0.7c0.9-1.3,1.8-2.4,2.9-3.5c1-1,2.2-2,3.4-2.8v0l0.7-0.4
				c0.1-0.1,0.2-0.1,0.3-0.2l0.1,0c0.7-0.4,1.5-0.8,2.2-1.2c0.9-0.4,1.9-0.8,2.8-1.1c2.3-0.8,4.8-1.1,7.3-1.1c1.3,0,2.5,0.1,3.8,0.3
				l2.4-2.8l-1.4-4.5l-0.1-0.2v0l-4.8-15.7l-4.8,15.9L46,44.5l-0.8,0.2c-0.4,0.1-0.9,0.2-1.3,0.3c-3.9,0.9-7.5,2.6-10.7,5l-0.6,0.4
				l-6-0.6l0.5,6l-0.5,0.6c-1.4,1.9-2.6,4-3.5,6.1c0,0-0.4,1.1-0.6,1.7l4.1-1.2l1.2,1.2l1,1.1l0.2,0.2l0,0
				C29.2,65.1,29.7,64.2,29.7,64.2z"/>
			<linearGradient id="SVGID_5_" gradientUnits="userSpaceOnUse" x1="92.8304" y1="42.1381" x2="36.6704" y2="117.7381">
				<stop  offset="0" style="stop-color:#C95A35"/>
				<stop  offset="3.858566e-02" style="stop-color:#CA5F36"/>
				<stop  offset="0.6993" style="stop-color:#DD9C44"/>
				<stop  offset="1" style="stop-color:#E6B54A"/>
			</linearGradient>
			<path class="st4" d="M61.3,53c0.7,0.3,1.3,0.7,2,1.1h0l0.3,0.2l0.7,0.5c1.3,0.9,2.4,1.8,3.5,2.9c1,1,2,2.2,2.8,3.4h0l0.4,0.7
				c0.1,0.1,0.1,0.2,0.2,0.3l0,0.1c0.4,0.7,0.8,1.5,1.2,2.2c0.4,0.9,0.8,1.9,1.1,2.8c0.8,2.3,1.1,4.8,1.1,7.3c0,1.3-0.1,2.5-0.3,3.8
				l2.8,2.4l4.5-1.4l0.2-0.1h0l15.7-4.8l-15.9-4.8L81,69.3l-0.2-0.8c-0.1-0.4-0.2-0.9-0.3-1.3c-0.9-3.9-2.6-7.5-5-10.7l-0.4-0.6
				l0.5-5.9l-5.9,0.5L69,50c-1.9-1.4-4-2.6-6.1-3.5c0,0-1.1-0.4-1.7-0.6l1.2,4.1l-1.2,1.2l-1.1,1L60,52.3l0,0
				C60.4,52.6,61.3,53,61.3,53z"/>
			<linearGradient id="SVGID_6_" gradientUnits="userSpaceOnUse" x1="99.4354" y1="47.0447" x2="43.2754" y2="122.6447">
				<stop  offset="0" style="stop-color:#C95A35"/>
				<stop  offset="3.858566e-02" style="stop-color:#CA5F36"/>
				<stop  offset="0.6993" style="stop-color:#DD9C44"/>
				<stop  offset="1" style="stop-color:#E6B54A"/>
			</linearGradient>
			<path class="st5" d="M78.7,86.9c0,0,0.2-0.5,0.3-0.7c0,0,0.5-1.1,0.7-1.7l-2.9,0.9l-1.4,0.4l-1.2-1.1h0l-1.2-1.2
				c-0.2,0.4-0.4,0.9-0.6,1.3c-0.4,0.7-0.8,1.5-1.2,2.1l0,0L71.3,87l-0.1,0.1c-0.9,1.5-2.1,2.9-3.4,4.2c-1.2,1.2-2.6,2.4-4.2,3.3
				c0,0-0.1,0.1-0.2,0.1l-0.1,0.1L63.1,95h0c-0.6,0.4-1.3,0.7-1.9,1c-0.9,0.4-1.8,0.8-2.8,1.1l-0.2,0.1h0c-2.3,0.7-4.6,1.1-7,1.1
				h-0.2h-1.4c0,0-1.5-0.2-2.2-0.3l-2.4,2.8l0.3,0.9l0.9,3l0.2,0.7l4.9,16l4.8-15.9l0.2-0.8l0.8-0.2c0.4-0.1,0.9-0.2,1.3-0.3
				c3.9-0.9,7.5-2.6,10.8-5l0.6-0.4l6,0.6l-0.5-6l0.5-0.6C76.8,90.7,77.9,88.9,78.7,86.9z"/>
		</g>
	</g>
	<g id="TYPE_1_">
		<path class="st12" d="M245,82.7c0,2.6-0.7,4.6-2.2,6.2c-1.4,1.6-3.5,2.3-6.2,2.3c-2.8,0-4.8-0.8-6.2-2.3c-1.4-1.6-2.1-3.6-2.1-6.2
			V52.4h-8.8v30.3c0,2.6-0.7,4.6-2.2,6.2c-1.4,1.6-3.5,2.3-6.2,2.3c-2.8,0-4.8-0.8-6.2-2.3c-1.4-1.6-2.1-3.6-2.1-6.2V52.4h-8.8V83
			c0,2.2,0.5,4.2,1.5,6c1,1.7,2.3,3.2,3.9,4.4c1.6,1.2,3.4,2.1,5.5,2.7c4,1.2,8.6,1.2,12.7,0c2-0.6,3.9-1.5,5.5-2.7
			c0.3-0.2,0.6-0.5,1-0.8c0.3,0.3,0.6,0.6,1,0.8c1.6,1.2,3.4,2.1,5.5,2.7c2,0.6,4.2,0.9,6.3,0.9c2.2,0,4.3-0.3,6.3-0.9
			c2-0.6,3.9-1.5,5.5-2.7c1.6-1.2,2.9-2.7,3.9-4.4c1-1.7,1.5-3.8,1.5-6V52.4H245V82.7z"/>
		<path class="st13" d="M327.8,82.7c0,2.6-0.7,4.6-2.2,6.2c-1.4,1.6-3.5,2.3-6.2,2.3c-2.8,0-4.8-0.8-6.2-2.3
			c-1.4-1.6-2.1-3.6-2.1-6.2V52.4h-8.8V83c0,2.2,0.5,4.2,1.5,6c1,1.7,2.3,3.2,3.9,4.4c1.6,1.2,3.4,2.1,5.5,2.7
			c2,0.6,4.2,0.9,6.3,0.9s4.3-0.3,6.3-0.9c2-0.6,3.9-1.5,5.5-2.7c1.6-1.2,2.9-2.7,3.9-4.4c1-1.7,1.5-3.8,1.5-6V52.4h-8.8V82.7z"/>
		<path class="st13" d="M293.7,73.8L293.7,73.8c-0.8-1.8-1.9-3.3-3.1-4.4c-1.2-1.1-2.6-1.9-4.1-2.5c-1.4-0.5-2.6-1-3.7-1.3
			c-1.6-0.5-3.2-0.9-4.8-1.4c-1.6-0.4-3-0.9-4.4-1.3c-0.6-0.2-1.2-0.4-1.8-0.7c-0.6-0.3-1.1-0.7-1.5-1.3c-0.4-0.5-0.7-1.2-1-1.9
			c-0.2-0.8-0.2-1.6,0-2.8c0.1-0.9,0.4-1.7,0.9-2.4c0.5-0.7,1.1-1.2,1.8-1.6c0.7-0.4,1.5-0.7,2.3-0.9c0.8-0.2,1.6-0.3,2.4-0.3v0h8.8
			c3.1,0,5.7-2.5,5.7-5.7v-0.4h-14.5v0c-1.6,0-3.2,0.2-4.8,0.5c-1.7,0.4-3.4,1-4.8,1.9c-1.5,0.9-2.8,2.1-3.8,3.6
			c-1,1.5-1.6,3.5-1.7,5.8c-0.2,2.3,0.1,5.3,1.1,7.1c0.9,1.6,2,3,3.3,4c1.3,1,2.7,1.8,4.1,2.3c1.4,0.5,2.6,0.9,3.5,1.1
			c1,0.3,1.8,0.5,2.4,0.7l0.1,0c0.6,0.2,1.2,0.3,1.7,0.5l1.5,0.4c0.5,0.1,1,0.3,1.6,0.4c0.5,0.1,1.2,0.3,1.9,0.7
			c0.7,0.3,1.5,0.8,2.1,1.4c0.7,0.6,1.2,1.3,1.7,2.2c0.5,0.8,0.7,1.9,0.7,3.1c0,1.4-0.2,2.5-0.6,3.8c-0.4,1.2-1.1,2.3-1.9,3.2
			c-0.8,0.9-1.8,1.7-3,2.2c-1.2,0.5-2.6,0.8-4.2,0.8H267c-3.1,0-5.7,2.5-5.7,5.7V97h18.1v0c1.1-0.1,2.4-0.3,3.8-0.6
			c1.8-0.4,3.5-1.2,5.1-2.4c1.6-1.2,3-2.8,4.2-4.8c1.2-2,1.9-4.7,2-7.8C294.8,78.9,294.5,75.8,293.7,73.8z"/>
		<path class="st13" d="M376.9,58.9c-1.4-1.8-3.1-3.3-5.1-4.2c-2-0.9-4.1-1.6-6.3-1.8c-2.1-0.3-4-0.4-5.6-0.4h-15.7V97h8.8V58.1h5
			c1.1,0,2.5,0.1,4,0.2c1.4,0.1,2.8,0.5,4.1,1.1c1.2,0.6,2.2,1.4,3,2.6c0.8,1.1,1.1,2.7,1.1,4.8V97h8.8V66.5
			C378.9,63.4,378.3,60.8,376.9,58.9z"/>
		<path class="st12" d="M136.3,45.1v34.7c-2-4.1-3.9-7.6-5.7-10.8l-6.8-12.8c-1.2-2.1-2.5-4.6-3.7-6.7c-1.5-2.7-4.3-4.4-7.4-4.4H110
			l0,0h0v0v11.1V75v22.1h8.5V63l9.8,18.3c0.2,0.5,3.8,6.9,6.3,11.4c1.5,2.7,4.3,4.4,7.4,4.4h2.7v0l0,0v0V67.2V45.1H136.3z"/>
		<path class="st12" d="M180.7,91h-10.3c-0.3,0-0.7-0.1-1.1-0.1c-1.4-0.1-2.7-0.5-3.9-1c-1.2-0.5-2.2-1.3-3-2.4
			c-0.8-1-1.2-2.6-1.3-4.5V81h4.8c0,0,0,0,0,0h1.2v0c1,0,2-0.1,3-0.2c1.9-0.2,3.8-0.6,5.6-1.2c1.9-0.6,3.6-1.4,5.1-2.4
			c1.5-1,2.8-2.3,3.8-3.9c1-1.6,1.6-3.4,1.7-5.6c0.1-2.4-0.3-4.5-1.2-6.4c-0.9-1.9-2.2-3.5-3.7-4.8h0c-1.6-1.3-3.4-2.3-5.4-3
			c-2-0.7-4.1-1-6.3-1c-2.7,0-5.2,0.5-7.3,1.4c-2.1,0.9-4,2.2-5.5,3.8c-1.5,1.6-2.6,3.6-3.4,5.8c-0.8,2.2-1.2,4.6-1.2,7.1v12
			c-0.1,3.2,0.6,5.8,2.1,7.8c1.4,1.9,3.1,3.3,5.1,4.3c2,1,4.1,1.6,6.2,1.9c1.7,0.2,3.3,0.4,4.7,0.4v0h0.9h0.5l0,0h14.5v-0.3
			C186.4,93.5,183.8,91,180.7,91z M161.1,67.7c0-2.9,0.8-5.1,2.3-6.9c1.5-1.7,3.6-2.6,6.2-2.6c1.1,0,2.3,0.2,3.3,0.6
			c1,0.4,1.9,0.9,2.7,1.7c0.8,0.7,1.4,1.7,1.8,2.7c0.4,1.1,0.6,2.4,0.5,3.9l0,0c-0.1,1.5-0.5,2.7-1.4,3.7c-0.9,1-2.1,1.8-3.5,2.4
			c-1.6,0.6-3.4,1-5.6,1.2c-0.1,0-0.2,0-0.3,0v0h-6V67.7z"/>
	</g>
	<g id="SLOGAN_1_">
		<path class="st12" d="M158.8,106.2c-0.3-0.3-0.7-0.5-1.2-0.7c-0.5-0.2-1.1-0.2-1.9-0.2c-0.8,0-1.4,0.1-1.9,0.2
			c-0.5,0.2-0.9,0.4-1.2,0.7c-0.3,0.3-0.5,0.6-0.6,1c-0.1,0.3-0.1,0.7-0.1,1v7.9h2v-4.3h3.6v4.3h2v-7.9c0-0.4,0-0.7-0.1-1
			C159.3,106.8,159.1,106.4,158.8,106.2z M157.5,107.6c0,0.2,0,0.4,0,0.5v2.3h-3.6v-2.3c0-0.2,0-0.3,0-0.5c0-0.2,0.1-0.3,0.2-0.5
			c0.1-0.1,0.3-0.3,0.5-0.4c0.2-0.1,0.6-0.2,1-0.2s0.8,0.1,1,0.2c0.2,0.1,0.4,0.2,0.5,0.4C157.4,107.3,157.5,107.5,157.5,107.6z"/>
		<path class="st12" d="M175.6,105.3c-0.2,0-0.5-0.1-0.9-0.1h-1.9c-0.2,0-0.4,0-0.7,0c-0.3,0-0.5,0.1-0.8,0.1
			c-0.3,0.1-0.5,0.2-0.8,0.3c-0.3,0.1-0.5,0.3-0.7,0.5c-0.2,0.2-0.4,0.5-0.5,0.8c-0.1,0.3-0.2,0.7-0.2,1.1v5.4c0,0.4,0,0.8,0.2,1.1
			c0.1,0.3,0.3,0.6,0.5,0.8c0.2,0.2,0.5,0.4,0.7,0.5c0.3,0.1,0.5,0.2,0.8,0.3c0.3,0.1,0.5,0.1,0.8,0.1c0.2,0,0.5,0,0.7,0h1.9
			c0.4,0,0.6,0,0.9-0.1c0.2,0,0.4-0.1,0.6-0.2l0.2-0.1v-1.1h-3.2c-0.2,0-0.4,0-0.7,0c-0.2,0-0.5-0.1-0.7-0.2
			c-0.2-0.1-0.4-0.2-0.5-0.4c-0.1-0.2-0.2-0.4-0.2-0.8v-2h2.1c0.4,0,0.6,0,0.9-0.1c0.2,0,0.4-0.1,0.6-0.2l0.2-0.1v-1h-3.8V108
			c0-0.3,0-0.6,0.2-0.7c0.1-0.2,0.3-0.3,0.5-0.4c0.2-0.1,0.4-0.2,0.7-0.2c0.3,0,0.5,0,0.7,0h3.2v-1.1l-0.2-0.1
			C176,105.4,175.8,105.3,175.6,105.3z"/>
		<path class="st12" d="M184.8,108.4c-0.4-0.2-0.8-0.3-1.2-0.4v0c-0.4-0.1-0.7-0.1-1-0.1h-3v8.1h2v-6.7h0.7c0.2,0,0.4,0,0.7,0
			c0.2,0,0.5,0.1,0.7,0.2c0.2,0.1,0.3,0.2,0.5,0.4c0.1,0.2,0.2,0.4,0.2,0.8v5.3h2v-5.4c0-0.6-0.1-1.1-0.4-1.5
			C185.6,108.8,185.2,108.6,184.8,108.4z"/>
		<path class="st12" d="M195,108.5c-0.3-0.2-0.7-0.4-1-0.6c-0.9-0.3-1.9-0.2-2.6,0.1c-0.4,0.2-0.8,0.4-1.1,0.7
			c-0.3,0.3-0.5,0.7-0.7,1.1c-0.1,0.4-0.2,0.9-0.2,1.3v2.1c0,0.6,0.1,1.1,0.4,1.5c0.3,0.4,0.6,0.6,1,0.8c0.4,0.2,0.8,0.3,1.2,0.4
			c0.4,0.1,0.7,0.1,1,0.1h0.5c0.4,0,0.6,0,0.9-0.1c0.2,0,0.4-0.1,0.6-0.2l0.2-0.1v-1h-1.8c-0.2,0-0.4,0-0.7,0
			c-0.2,0-0.5-0.1-0.7-0.2c-0.2-0.1-0.3-0.2-0.5-0.4c-0.1-0.2-0.2-0.4-0.2-0.7v-0.2c0.1,0,0.3,0,0.4,0c0.3,0,0.7,0,1,0
			c0.4,0,0.7-0.1,1-0.2c0.4-0.1,0.7-0.3,1-0.5c0.3-0.2,0.5-0.4,0.7-0.7c0.2-0.3,0.3-0.7,0.3-1.1c0-0.4-0.1-0.9-0.2-1.2
			C195.6,109.1,195.3,108.8,195,108.5z M191.4,110.7c0-0.5,0.1-0.8,0.4-1.1c0.2-0.3,0.6-0.4,1-0.4c0.2,0,0.4,0,0.5,0.1
			c0.2,0.1,0.3,0.1,0.4,0.3c0.1,0.1,0.2,0.3,0.3,0.4c0.1,0.2,0.1,0.4,0.1,0.6c0,0.2-0.1,0.4-0.2,0.6c-0.1,0.2-0.3,0.3-0.6,0.4
			c-0.3,0.1-0.6,0.2-1,0.2c-0.3,0-0.6,0-1,0V110.7z"/>
		<path class="st12" d="M200.9,108.2c-0.5,0.2-0.8,0.4-1.1,0.7c-0.3,0.3-0.5,0.6-0.6,0.9c-0.1,0.3-0.1,0.6-0.1,0.9v5.4h2v-5.4
			c0-0.3,0-0.5,0.1-0.7c0.1-0.2,0.2-0.3,0.4-0.4c0.2-0.1,0.3-0.2,0.5-0.2c0.2-0.1,0.4-0.1,0.6-0.1c0.3,0,0.6-0.1,0.8-0.1
			c0.2,0,0.4-0.1,0.6-0.2l0.2-0.1v-1h-1.6C202,107.9,201.4,108,200.9,108.2z"/>
		<path class="st12" d="M210.1,108c-0.3,0-0.5,0.1-0.8,0.1c-0.3,0.1-0.5,0.2-0.8,0.3c-0.3,0.1-0.5,0.3-0.7,0.5
			c-0.2,0.2-0.4,0.5-0.5,0.8c-0.1,0.3-0.2,0.7-0.2,1.1v2.6c0,0.4,0,0.8,0.2,1.1c0.1,0.3,0.3,0.6,0.5,0.8c0.2,0.2,0.5,0.4,0.7,0.5
			c0.3,0.1,0.5,0.2,0.8,0.3c0.3,0.1,0.5,0.1,0.8,0.1c0.2,0,0.5,0,0.7,0h1.1v0.4c0,0.3,0,0.6-0.2,0.8c-0.1,0.2-0.3,0.3-0.5,0.4
			c-0.2,0.1-0.4,0.2-0.7,0.2c-0.3,0-0.5,0-0.7,0h-1.3v1l0.2,0.1c0.2,0.1,0.3,0.1,0.6,0.2c0.2,0,0.5,0.1,0.9,0.1l0.4,0v0
			c0.2,0,0.4,0,0.6-0.1c0.4-0.1,0.8-0.2,1.2-0.3c0.4-0.2,0.7-0.5,1-0.8c0.3-0.4,0.4-0.9,0.4-1.5v-8.5h-3
			C210.6,107.9,210.4,108,210.1,108z M209.3,114c-0.1-0.2-0.2-0.4-0.2-0.8v-2.6c0-0.3,0-0.6,0.2-0.7c0.1-0.2,0.3-0.3,0.5-0.4
			c0.2-0.1,0.4-0.2,0.7-0.2c0.3,0,0.5,0,0.7,0h0.7v5.3h-0.7c-0.2,0-0.4,0-0.7,0c-0.2,0-0.5-0.1-0.7-0.2
			C209.6,114.4,209.4,114.2,209.3,114z"/>
		<g>
			<rect x="217.4" y="108" class="st12" width="2" height="8.1"/>
			<path class="st12" d="M217.7,105.5c-0.2,0.2-0.3,0.4-0.3,0.7c0,0.3,0.1,0.5,0.3,0.7c0.2,0.2,0.4,0.3,0.7,0.3
				c0.3,0,0.5-0.1,0.7-0.3c0.2-0.2,0.3-0.4,0.3-0.7c0-0.3-0.1-0.5-0.3-0.7C218.7,105.1,218,105.1,217.7,105.5z"/>
		</g>
		<path class="st12" d="M228.1,108.4c-0.4-0.2-0.8-0.3-1.2-0.4c-0.9-0.1-1.5-0.1-1.9,0c-0.2,0-0.4,0.1-0.6,0.2l-0.2,0.1v1h1.3
			c0.2,0,0.4,0,0.7,0c0.2,0,0.5,0.1,0.7,0.2c0.2,0.1,0.4,0.2,0.5,0.4c0.1,0.1,0.1,0.2,0.2,0.4c-0.5,0-0.9,0-1.3,0
			c-0.6,0.1-1.1,0.2-1.6,0.4c-0.5,0.2-0.9,0.5-1.2,0.9c-0.3,0.4-0.5,0.9-0.5,1.6c0,0.6,0.1,1.1,0.4,1.5c0.3,0.4,0.6,0.6,1,0.8
			c0.4,0.2,0.8,0.3,1.2,0.4c0.4,0.1,0.7,0.1,1,0.1h3v-5.3c0-0.6-0.1-1.1-0.4-1.5C228.8,108.9,228.5,108.6,228.1,108.4z M224.9,114
			c-0.1-0.2-0.2-0.4-0.2-0.7c0-0.3,0.1-0.6,0.2-0.8c0.2-0.2,0.4-0.4,0.6-0.5c0.3-0.1,0.6-0.2,1-0.2c0.2,0,0.4,0,0.7,0
			c0.1,0,0.2,0,0.2,0v2.8h-0.7c-0.2,0-0.4,0-0.7,0c-0.2,0-0.5-0.1-0.7-0.2C225.2,114.4,225.1,114.2,224.9,114z"/>
		<path class="st12" d="M244,107.9h-1.1c-0.2,0-0.4,0-0.7,0c-0.3,0-0.5,0.1-0.8,0.1c-0.3,0.1-0.5,0.2-0.8,0.3
			c-0.3,0.1-0.5,0.3-0.7,0.5c-0.2,0.2-0.4,0.5-0.5,0.8c-0.1,0.3-0.2,0.7-0.2,1.1v2.6c0,0.6,0.1,1.1,0.4,1.5c0.3,0.4,0.6,0.6,1,0.8
			c0.4,0.2,0.8,0.3,1.2,0.4c0.4,0.1,0.7,0.1,1,0.1h3v-10.8h-2V107.9z M241.3,114c-0.1-0.2-0.2-0.4-0.2-0.7v-2.6c0-0.3,0-0.6,0.2-0.8
			c0.1-0.2,0.3-0.3,0.5-0.4c0.2-0.1,0.4-0.2,0.7-0.2c0.3,0,0.5,0,0.7,0h0.7v5.3h-0.7c-0.2,0-0.4,0-0.7,0c-0.2,0-0.5-0.1-0.7-0.2
			C241.6,114.4,241.5,114.2,241.3,114z"/>
		<path class="st12" d="M254.4,108.4c-0.4-0.2-0.8-0.3-1.2-0.4c-0.9-0.1-1.5-0.1-1.9,0c-0.2,0-0.4,0.1-0.6,0.2l-0.2,0.1v1h1.3
			c0.2,0,0.4,0,0.7,0c0.2,0,0.5,0.1,0.7,0.2c0.2,0.1,0.4,0.2,0.5,0.4c0.1,0.1,0.1,0.2,0.2,0.4c-0.5,0-0.9,0-1.3,0
			c-0.6,0.1-1.1,0.2-1.6,0.4c-0.5,0.2-0.9,0.5-1.2,0.9c-0.3,0.4-0.5,0.9-0.5,1.6c0,0.6,0.1,1.1,0.4,1.5c0.3,0.4,0.6,0.6,1,0.8
			c0.4,0.2,0.8,0.3,1.2,0.4c0.4,0.1,0.7,0.1,1,0.1h3v-5.3c0-0.6-0.1-1.1-0.4-1.5C255.2,108.9,254.8,108.6,254.4,108.4z M251.3,114
			c-0.1-0.2-0.2-0.4-0.2-0.7c0-0.3,0.1-0.6,0.2-0.8c0.2-0.2,0.4-0.4,0.6-0.5c0.3-0.1,0.6-0.2,1-0.2c0.2,0,0.4,0,0.7,0
			c0.1,0,0.2,0,0.2,0v2.8h-0.7c-0.2,0-0.4,0-0.7,0c-0.2,0-0.5-0.1-0.7-0.2C251.6,114.4,251.4,114.2,251.3,114z"/>
		<path class="st12" d="M271,112l-2.8-5.3c-0.5-0.9-1.5-1.5-2.5-1.5h0v10.8h2v-6.6l2.7,5.1c0.5,0.9,1.5,1.5,2.5,1.5h0.1v-10.8H271
			V112z"/>
		<path class="st12" d="M281.7,108.5c-0.3-0.2-0.7-0.4-1-0.5c-0.8-0.2-1.6-0.2-2.4,0c-0.4,0.1-0.7,0.3-1.1,0.5
			c-0.3,0.2-0.6,0.5-0.7,0.9c-0.2,0.3-0.3,0.7-0.3,1.2v3c0,0.4,0.1,0.8,0.3,1.2c0.2,0.3,0.4,0.6,0.7,0.9c0.3,0.2,0.7,0.4,1,0.5
			c0.4,0.1,0.8,0.2,1.2,0.2c0.4,0,0.8-0.1,1.2-0.2c0.4-0.1,0.7-0.3,1-0.5c0.3-0.2,0.6-0.5,0.8-0.9c0.2-0.3,0.3-0.7,0.3-1.2v-3
			c0-0.4-0.1-0.8-0.3-1.2C282.3,109,282,108.7,281.7,108.5z M278.1,110.5c0-0.4,0.1-0.8,0.3-1c0.2-0.2,0.6-0.4,1-0.4
			c0.5,0,0.8,0.1,1,0.4c0.2,0.3,0.3,0.6,0.3,1v2.9c0,0.4-0.1,0.8-0.3,1c-0.2,0.2-0.6,0.4-1,0.4c-0.5,0-0.8-0.1-1-0.4
			c-0.2-0.3-0.3-0.6-0.3-1V110.5z"/>
		<polygon class="st12" points="289.1,113 287.7,107.9 285.7,107.9 288.2,116.1 290,116.1 292.5,107.9 290.6,107.9 		"/>
		<path class="st12" d="M300.8,108.4c-0.4-0.2-0.8-0.3-1.2-0.4c-0.9-0.1-1.5-0.1-1.9,0c-0.2,0-0.4,0.1-0.6,0.2l-0.2,0.1v1h1.3
			c0.2,0,0.4,0,0.7,0c0.2,0,0.5,0.1,0.7,0.2c0.2,0.1,0.4,0.2,0.5,0.4c0.1,0.1,0.1,0.2,0.2,0.4c-0.4,0-0.9,0-1.3,0
			c-0.6,0.1-1.1,0.2-1.6,0.4c-0.5,0.2-0.9,0.5-1.2,0.9c-0.3,0.4-0.5,0.9-0.5,1.6c0,0.6,0.1,1.1,0.4,1.5c0.3,0.4,0.6,0.6,1,0.8
			c0.4,0.2,0.8,0.3,1.2,0.4c0.4,0.1,0.7,0.1,1,0.1h3v-5.3c0-0.6-0.1-1.1-0.4-1.5C301.5,108.9,301.2,108.6,300.8,108.4z M297.7,114
			c-0.1-0.2-0.2-0.4-0.2-0.7c0-0.3,0.1-0.6,0.2-0.8c0.2-0.2,0.4-0.4,0.6-0.5c0.3-0.1,0.6-0.2,1-0.2c0.2,0,0.4,0,0.7,0
			c0.1,0,0.2,0,0.2,0v2.8h-0.7c-0.2,0-0.4,0-0.7,0c-0.2,0-0.5-0.1-0.7-0.2C297.9,114.4,297.8,114.2,297.7,114z"/>
		<path class="st12" d="M318.3,105.3c-0.2,0-0.5-0.1-0.9-0.1h-1.9c-0.2,0-0.4,0-0.7,0c-0.3,0-0.5,0.1-0.8,0.1
			c-0.3,0.1-0.5,0.2-0.8,0.3c-0.3,0.1-0.5,0.3-0.7,0.5c-0.2,0.2-0.4,0.5-0.5,0.8c-0.1,0.3-0.2,0.7-0.2,1.1v5.4c0,0.4,0,0.8,0.2,1.1
			c0.1,0.3,0.3,0.6,0.5,0.8c0.2,0.2,0.5,0.4,0.7,0.5c0.3,0.1,0.5,0.2,0.8,0.3c0.3,0.1,0.5,0.1,0.8,0.1c0.2,0,0.5,0,0.7,0h1.9
			c0.4,0,0.6,0,0.9-0.1c0.2,0,0.4-0.1,0.6-0.2l0.2-0.1v-1.1h-3.2c-0.2,0-0.4,0-0.7,0c-0.2,0-0.5-0.1-0.7-0.2
			c-0.2-0.1-0.4-0.2-0.5-0.4c-0.1-0.2-0.2-0.4-0.2-0.8v-2h2.1c0.4,0,0.6,0,0.9-0.1c0.2,0,0.4-0.1,0.6-0.2l0.2-0.1v-1h-3.8V108
			c0-0.3,0-0.6,0.2-0.7c0.1-0.2,0.3-0.3,0.5-0.4c0.2-0.1,0.4-0.2,0.7-0.2c0.3,0,0.5,0,0.7,0h3.2v-1.1l-0.2-0.1
			C318.7,105.4,318.5,105.3,318.3,105.3z"/>
		<path class="st12" d="M324,108.2c-0.5,0.2-0.8,0.4-1.1,0.7c-0.3,0.3-0.5,0.6-0.6,0.9c-0.1,0.3-0.1,0.6-0.1,0.9v5.4h2v-5.4
			c0-0.3,0-0.5,0.1-0.7c0.1-0.2,0.2-0.3,0.4-0.4c0.2-0.1,0.3-0.2,0.5-0.2c0.2-0.1,0.4-0.1,0.6-0.1c0.3,0,0.6-0.1,0.8-0.1
			c0.2,0,0.4-0.1,0.6-0.2l0.2-0.1v-1h-1.6C325.1,107.9,324.5,108,324,108.2z"/>
		<path class="st12" d="M336.5,109.2c-0.3-0.4-0.6-0.6-1-0.8c-0.4-0.2-0.8-0.3-1.2-0.4c-0.9-0.1-1.5-0.1-1.9,0
			c-0.2,0-0.4,0.1-0.6,0.2l-0.2,0.1v1h1.3c0.2,0,0.4,0,0.7,0c0.2,0,0.5,0.1,0.7,0.2c0.2,0.1,0.4,0.2,0.5,0.4
			c0.1,0.1,0.1,0.2,0.2,0.4c-0.4,0-0.9,0-1.3,0c-0.6,0.1-1.1,0.2-1.6,0.4c-0.5,0.2-0.9,0.5-1.2,0.9c-0.3,0.4-0.5,0.9-0.5,1.6
			c0,0.6,0.1,1.1,0.4,1.5c0.3,0.4,0.6,0.6,1,0.8c0.4,0.2,0.8,0.3,1.2,0.4c0.4,0.1,0.7,0.1,1,0.1h3v-5.3
			C337,110.1,336.8,109.6,336.5,109.2z M332.4,114c-0.1-0.2-0.2-0.4-0.2-0.7c0-0.3,0.1-0.6,0.2-0.8c0.2-0.2,0.4-0.4,0.6-0.5
			c0.3-0.1,0.6-0.2,1-0.2c0.2,0,0.4,0,0.7,0c0.1,0,0.2,0,0.2,0v2.8h-0.7c-0.2,0-0.4,0-0.7,0c-0.2,0-0.5-0.1-0.7-0.2
			C332.7,114.4,332.5,114.2,332.4,114z"/>
	</g>
</g>
</svg>
