<svg width="21" height="15" viewBox="0 0 21 15" fill="none" xmlns="http://www.w3.org/2000/svg">
<path d="M10.5 14C8.85987 14.0204 7.2367 13.6664 5.754 12.965C4.60469 12.4042 3.57265 11.6298 2.713 10.683C1.80243 9.70411 1.08547 8.56165 0.6 7.31599L0.5 6.99999L0.605 6.68399C1.09082 5.43943 1.80624 4.29726 2.714 3.31699C3.57334 2.37031 4.60504 1.59586 5.754 1.03499C7.23671 0.333583 8.85988 -0.0203948 10.5 -5.86262e-06C12.1401 -0.0203596 13.7633 0.333616 15.246 1.03499C16.3953 1.59573 17.4274 2.37019 18.287 3.31699C19.1993 4.29455 19.9165 5.43736 20.4 6.68399L20.5 6.99999L20.395 7.31599C18.8262 11.3998 14.8742 14.0693 10.5 14ZM10.5 1.99999C7.09587 1.89332 3.97142 3.87509 2.617 6.99999C3.9712 10.1251 7.09579 12.1069 10.5 12C13.9041 12.1064 17.0284 10.1247 18.383 6.99999C17.0304 3.87357 13.9047 1.89107 10.5 1.99999ZM10.5 9.99999C9.05733 10.0095 7.80937 8.99735 7.52097 7.58377C7.23256 6.17018 7.98427 4.75002 9.31538 4.19366C10.6465 3.63729 12.1852 4.10013 12.9885 5.2985C13.7919 6.49687 13.6354 8.09607 12.615 9.11599C12.0563 9.68125 11.2948 9.99956 10.5 9.99999Z" fill="#A2A2A2"/>
</svg>
